Coordinates
nRows=11
nColumns=24

# SIMM Motion File Header:
name Coordinates
datacolumns 24
datarows 11
otherdata 1
range 0.82299999999999995000 0.83299999999999996000
endheader
time	pelvis_tx	pelvis_ty	pelvis_tz	pelvis_tilt	pelvis_list	pelvis_rotation	hip_flexion_r	hip_adduction_r	hip_rotation_r	knee_angle_r	ankle_angle_r	subtalar_angle_r	mtp_angle_r	hip_flexion_l	hip_adduction_l	hip_rotation_l	knee_angle_l	ankle_angle_l	subtalar_angle_l	mtp_angle_l	lumbar_extension	lumbar_bending	lumbar_rotation
      0.82299999999999995000	      0.41429055162003842000	      0.82370755696676534000	     -0.29463710138236532000	     -4.50332307589009600000	      0.07214860405523286500	      0.34890637574237626000	     33.87094574368777700000	     -0.72316225666243550000	      3.96406730805383490000	    -19.38003908982106100000	     -4.59788440402355380000	     -0.00000000000000511829	      0.00000000000000845640	     -2.56232800641996050000	      5.90464510596913520000	     -0.21621487406413531000	     -0.74058580523565498000	      6.55973519777817770000	      0.00000000000011150962	     -0.00000000000027566171	      7.65310176015816880000	     -2.26937543291577090000	      8.14613081505891050000
      0.82399999999999995000	      0.41470267050398163000	      0.82359911421352816000	     -0.29464236383875714000	     -4.51022064035385210000	      0.07540303634937950400	      0.37235442795542956000	     33.83601954977537900000	     -0.72381383571743685000	      3.97034468953072260000	    -19.10571259519822700000	     -4.65276613030385190000	     -0.00000000000000524570	      0.00000000000000857775	     -2.58149662200928230000	      5.90719530187497010000	     -0.20601561620562783000	     -0.75427087486025590000	      6.59487033792166070000	      0.00000000000011221992	     -0.00000000000027731153	      7.66404402301214740000	     -2.28132044580093310000	      8.14287971817356390000
      0.82499999999999996000	      0.41511627451481969000	      0.82349070430675175000	     -0.29464759092492887000	     -4.51702954990693590000	      0.07895805001051835200	      0.39569095033809526000	     33.80063063422305400000	     -0.72496168230132030000	      3.97759745603260710000	    -18.83279096608674400000	     -4.70682339643203380000	     -0.00000000000000536922	      0.00000000000000867326	     -2.60079930659993550000	      5.90997345614470420000	     -0.19643655701034046000	     -0.76798172757081307000	      6.63020628430795520000	      0.00000000000011293093	     -0.00000000000027895839	      7.67499283628917970000	     -2.29349953137833840000	      8.13989307404826510000
      0.82599999999999996000	      0.41553086376380277000	      0.82338230886960340000	     -0.29465276388120826000	     -4.52380327660096440000	      0.08272900163078165900	      0.41892601997091838000	     33.76498928965406100000	     -0.72644552824433295000	      3.98552266856738720000	    -18.56088699367097000000	     -4.76027218444471330000	     -0.00000000000000549364	      0.00000000000000876586	     -2.62016991736907070000	      5.91292199973929210000	     -0.18741030279426632000	     -0.78168441674128430000	      6.66531098839361840000	      0.00000000000011364017	     -0.00000000000028059888	      7.68597454563954500000	     -2.30584442038992330000	      8.13709931672529410000
      0.82699999999999996000	      0.41594643825093097000	      0.82327392790208331000	     -0.29465788270759541000	     -4.53054182043593650000	      0.08671589121016967700	      0.44205963685389871000	     33.72909551606839800000	     -0.72826537354647525000	      3.99412032713506400000	    -18.29000067795091100000	     -4.81311249434188950000	     -0.00000000000000561896	      0.00000000000000885556	     -2.63960845431668870000	      5.91604093265873490000	     -0.17893685355740599000	     -0.79537894237166973000	      6.70018445017865180000	      0.00000000000011434763	     -0.00000000000028223300	      7.69698915106324310000	     -2.31835511283568870000	      8.13449844620465260000
      0.82799999999999996000	      0.41636201273805912000	      0.82316554693456312000	     -0.29466300153398256000	     -4.53728036427090850000	      0.09070278078955768000	      0.46519325373687909000	     33.69320174248273500000	     -0.73008521884861755000	      4.00271798570274040000	    -18.01911436223084800000	     -4.86595280423906560000	     -0.00000000000000574428	      0.00000000000000894525	     -2.65904699126430620000	      5.91915986557817760000	     -0.17046340432054566000	     -0.80907346800205504000	      6.73505791196368440000	      0.00000000000011505509	     -0.00000000000028386712	      7.70800375648694210000	     -2.33086580528145420000	      8.13189757568400930000
      0.82899999999999996000	      0.41677984481646030000	      0.82305715579428518000	     -0.29466804294004306000	     -4.54401182588440200000	      0.09523990957604351600	      0.48811251695753072000	     33.65687447562799400000	     -0.73276379808885583000	      4.01287136218543950000	    -17.75085988323759900000	     -4.91716837896819920000	     -0.00000000000000587728	      0.00000000000000904849	     -2.67853253073960310000	      5.92272673538785720000	     -0.16334967050700727000	     -0.82277875292633940000	      6.76856993458979070000	      0.00000000000011578253	     -0.00000000000028555260	      7.71917389950790070000	     -2.34381006637722410000	      8.12969261608611400000
      0.82999999999999996000	      0.41719767689486148000	      0.82294876465400735000	     -0.29467308434610356000	     -4.55074328749789550000	      0.09977703836252933800	      0.51103178017818229000	     33.62054720877325300000	     -0.73544237732909401000	      4.02302473866813950000	    -17.48260540424435300000	     -4.96838395369733290000	     -0.00000000000000601028	      0.00000000000000915173	     -2.69801807021489950000	      5.92629360519753770000	     -0.15623593669346889000	     -0.83648403785062375000	      6.80208195721589610000	      0.00000000000011650997	     -0.00000000000028723807	      7.73034404252885920000	     -2.35675432747299360000	      8.12748765648821880000
      0.83099999999999996000	      0.41761660381191129000	      0.82284039550709320000	     -0.29467817053338846000	     -4.55747921101787320000	      0.10459796118428073000	      0.53389997052450278000	     33.58403708890050200000	     -0.73859821072201848000	      4.03388881197409430000	    -17.21577105412189500000	     -5.01868534651266350000	     -0.00000000000000614509	      0.00000000000000925734	     -2.71749128866042120000	      5.93009165796658170000	     -0.14969204518568174000	     -0.85023978280293178000	      6.83455285481189280000	      0.00000000000011724590	     -0.00000000000028895307	      7.74159241361477330000	     -2.36992945276322600000	      8.12540173908512030000
      0.83199999999999996000	      0.41803662556760973000	      0.82273204835354286000	     -0.29468330150189770000	     -4.56421959644433620000	      0.10970267804129737000	      0.55671708799649222000	     33.54734411600972500000	     -0.74223129826762868000	      4.04546358210330580000	    -16.95035683287022700000	     -5.06807255741419120000	     -0.00000000000000628172	      0.00000000000000936534	     -2.73695218607616740000	      5.93412089369499010000	     -0.14371799598364518000	     -0.86404598778326358000	      6.86598262737778150000	      0.00000000000011799032	     -0.00000000000029069760	      7.75291901276564130000	     -2.38333544224792030000	      8.12343486387682030000
      0.83299999999999996000	      0.41845664732330812000	      0.82262370119999240000	     -0.29468843247040699000	     -4.57095998187079820000	      0.11480739489831429000	      0.57953420546848156000	     33.51065114311894900000	     -0.74586438581323933000	      4.05703835223251730000	    -16.68494261161856000000	     -5.11745976831571790000	     -0.00000000000000641834	      0.00000000000000947334	     -2.75641308349191360000	      5.93815012942339940000	     -0.13774394678160903000	     -0.87785219276359538000	      6.89741239994366850000	      0.00000000000011873473	     -0.00000000000029244213	      7.76424561191650930000	     -2.39674143173261460000	      8.12146798866851860000
